<svg width="25" height="25" viewBox="0 0 25 25" fill="none" xmlns="http://www.w3.org/2000/svg">
<g clip-path="url(#clip0_1_4)">
<path d="M2.78442 24.6711C3.32078 24.8843 3.9082 25 4.51615 25H17.2894C22.2203 25 25 22.6994 25 19.2344C25.0031 16.1944 22.8524 13.8021 19.3295 13.3155C21.1976 12.8202 22.9845 11.256 22.9972 8.65383C22.9862 5.91789 20.9655 3.99065 17.2525 3.59925C17.2825 3.45674 17.2988 3.3118 17.2988 3.16392C17.2988 1.41676 15.1507 0 12.5016 0C9.85031 0 7.70221 1.41676 7.70221 3.16392C7.70221 3.28593 7.71379 3.40598 7.73379 3.52458H7.69694V3.52311H2.03804L2.04383 3.82863H2.4565C3.61134 3.82863 4.58089 4.67536 4.58089 5.73244V13.6312C5.1462 13.3775 5.75994 13.1349 6.41105 12.9105C6.51842 12.8738 6.62791 12.8362 6.73844 12.8002V4.50943H8.48758C11.6257 4.5065 13.3127 6.10091 13.3259 8.87492C13.3153 12.2516 10.7925 13.1432 8.80023 13.3258C8.66602 13.338 8.53437 13.3472 8.40648 13.3536C7.98805 13.3741 7.5743 13.4477 7.17848 13.5766C7.02899 13.6259 6.88214 13.6747 6.73844 13.7245C5.93259 14.0031 5.21621 14.297 4.58089 14.6034C-0.335317 16.9728 -0.425326 20.0689 0.378953 22.2645C0.783726 23.3705 1.67485 24.2289 2.78442 24.6711ZM22.5187 19.0143C22.5213 22.1162 20.5686 23.8951 17.1735 23.8814H15.1018C16.8666 22.878 17.8105 21.2534 17.8105 19.2344C17.813 16.6468 16.2551 14.5283 13.6191 13.6552C14.9665 13.6566 15.3812 13.6581 15.5623 13.6615C15.606 13.6625 15.6492 13.663 15.6929 13.6645C18.7937 13.7655 22.5209 14.7166 22.5187 19.0143ZM9.35234 3.52311C9.3218 3.40647 9.30602 3.28691 9.30602 3.16392C9.30602 2.00045 10.7356 1.05757 12.501 1.05757C14.2644 1.05757 15.6945 2.00045 15.6945 3.16392C15.6945 3.28691 15.6781 3.40696 15.6477 3.5236H13.258L9.35234 3.52311ZM15.8081 8.65383C15.8008 6.85248 14.9228 5.40204 13.2659 4.50943H15.6777C18.8148 4.5065 20.5027 6.10091 20.5148 8.87492C20.5033 12.7328 17.212 13.3462 15.1802 13.3653H15.1197C14.9791 13.3653 14.477 13.3663 12.4616 13.3663C12.3558 13.3472 12.2489 13.3311 12.1405 13.3155C14.0085 12.8202 15.795 11.256 15.8081 8.65383ZM4.58089 15.1441C5.35201 14.6703 6.12944 14.314 6.73844 14.0695C6.81371 14.0398 6.88635 14.0114 6.95583 13.9846C7.56062 13.7523 8.21328 13.644 8.86602 13.6801C8.86914 13.6801 8.87281 13.681 8.87602 13.681C11.8947 13.847 15.3308 14.8884 15.3281 19.0148C15.3312 21.9673 13.5616 23.7223 10.462 23.8712C10.3187 23.878 10.1724 23.8819 10.0234 23.8819H6.73792C5.99417 23.8595 5.1583 23.7667 4.38351 23.5573C3.29552 23.2645 2.32859 22.7395 1.90909 21.8522C0.384744 18.6312 2.46334 16.4433 4.58089 15.1441Z" fill="#001C30"/>
</g>
<defs>
<clipPath id="clip0_1_4">
<rect width="25" height="25" fill="white"/>
</clipPath>
</defs>
</svg>
